<svg xmlns="http://www.w3.org/2000/svg" viewBox="0 0 520 150" role="img" aria-labelledby="title desc"><title id="title">NaturoIQ</title><desc id="desc">NaturoIQ Natural Health Intelligence logo</desc><defs><linearGradient id="bg" x1="0" y1="0" x2="1" y2="1"><stop stop-color="#063d32"/><stop offset=".55" stop-color="#075a43"/><stop offset="1" stop-color="#0c8f77"/></linearGradient><linearGradient id="ring" x1="0" y1="0" x2="1" y2="1"><stop stop-color="#a3e635"/><stop offset="1" stop-color="#22d3ee"/></linearGradient><linearGradient id="iq" x1="0" y1="0" x2="1" y2="0"><stop stop-color="#14b8a6"/><stop offset="1" stop-color="#0ea5e9"/></linearGradient></defs><g transform="translate(8 9)"><rect width="132" height="132" rx="30" fill="url(#bg)"/><circle cx="66" cy="66" r="48" fill="none" stroke="url(#ring)" stroke-width="5"/><path d="M43 98V39c24 4 39 24 46 52V37" fill="none" stroke="#84cc16" stroke-width="13" stroke-linecap="round" stroke-linejoin="round"/><path d="M42 38c18-18 35-15 46-10-7 23-21 35-45 32 10-7 20-15 30-24-12 6-22 12-32 20-4-6-4-12 1-18Z" fill="#8fd43f"/><path d="M37 81c15-17 31-17 47 0-16 17-32 17-47 0Zm0 0c15 17 31 17 47 0" fill="none" stroke="#38bdf8" stroke-width="5"/></g><text x="165" y="75" font-family="Arial, Helvetica, sans-serif" font-size="58" font-weight="800" fill="#073d32" letter-spacing="-2">Naturo</text><text x="350" y="75" font-family="Arial, Helvetica, sans-serif" font-size="58" font-weight="800" fill="url(#iq)">IQ</text><text x="168" y="108" font-family="Arial, Helvetica, sans-serif" font-size="15" font-weight="700" fill="#34836f" letter-spacing="4">NATURAL HEALTH INTELLIGENCE</text></svg>