<svg xmlns="http://www.w3.org/2000/svg" viewBox="0 0 1200 1800" role="img" aria-labelledby="title desc"><title id="title">Take2NewU Daily Wellness label master</title><desc id="desc">Editable front-label concept for white supplement bottles.</desc><defs><linearGradient id="gold" x1="0" y1="0" x2="1" y2="1"><stop offset="0" stop-color="#A97920"/><stop offset=".5" stop-color="#E4C77C"/><stop offset="1" stop-color="#B78328"/></linearGradient></defs><rect width="1200" height="1800" rx="54" fill="#FBF7EF"/><rect x="42" y="42" width="1116" height="1716" rx="38" fill="none" stroke="#D7C5A3" stroke-width="4"/><g transform="translate(410 130) scale(2.7)" fill="none" stroke="url(#gold)" stroke-width="4"><rect x="8" y="42" width="118" height="86" rx="12"/><g transform="rotate(-8 16 42)"><rect x="8" y="11" width="118" height="31" rx="7"/><path d="M31 12l-18 29M70 12L52 41M109 12L91 41" stroke-width="12"/></g></g><text x="600" y="560" text-anchor="middle" font-family="Georgia,serif" font-size="126" fill="#2B241F">Take<tspan fill="#C89A35">2</tspan>NewU</text><text x="600" y="660" text-anchor="middle" font-family="Arial,sans-serif" font-size="36" letter-spacing="16" fill="#A97920">WELLNESS</text><line x1="210" y1="745" x2="990" y2="745" stroke="#D7C5A3" stroke-width="3"/><text x="600" y="965" text-anchor="middle" font-family="Georgia,serif" font-size="112" fill="#2B241F">DAILY WELLNESS</text><text x="600" y="1060" text-anchor="middle" font-family="Arial,sans-serif" font-size="40" letter-spacing="5" fill="#6D6258">FOUNDATIONAL DAILY SUPPORT</text><text x="600" y="1330" text-anchor="middle" font-family="Arial,sans-serif" font-size="42" fill="#2B241F">60 CAPSULES</text><rect x="0" y="1510" width="1200" height="290" fill="url(#gold)"/><text x="600" y="1645" text-anchor="middle" font-family="Arial,sans-serif" font-size="38" letter-spacing="9" fill="#FFFFFF">DAILY WELLNESS SERIES</text><text x="600" y="1710" text-anchor="middle" font-family="Georgia,serif" font-style="italic" font-size="34" fill="#FFFFFF">Every Day Is a New Take.</text></svg>